<?xml version="1.0" encoding="utf-8"?>
<!-- Generator: Adobe Illustrator 27.0.0, SVG Export Plug-In . SVG Version: 6.00 Build 0)  -->
<svg version="1.1" id="Vrstva_1" xmlns="http://www.w3.org/2000/svg" xmlns:xlink="http://www.w3.org/1999/xlink" x="0px" y="0px"
	 viewBox="0 0 120 39.95" style="enable-background:new 0 0 120 39.95;" xml:space="preserve">
<g>
	<g>
		<path d="M47.55,15.31h2.29v9.06h-2.29V15.31z"/>
		<path d="M59.28,15.31h2.29v7.03h4.14v2.04h-6.43V15.31z"/>
		<path d="M67.43,24.38v-9.06h3.48c1.34,0,2.42,0.41,3.21,1.22c0.8,0.81,1.19,1.92,1.19,3.31c0,1.4-0.4,2.5-1.19,3.31
			c-0.8,0.81-1.87,1.22-3.21,1.22H67.43z M69.72,22.37h1.09c0.22,0,0.43-0.02,0.62-0.06c0.19-0.04,0.39-0.11,0.59-0.23
			c0.2-0.11,0.37-0.26,0.51-0.44c0.14-0.18,0.26-0.43,0.34-0.73c0.09-0.31,0.13-0.66,0.13-1.07c0-0.41-0.04-0.77-0.13-1.08
			c-0.09-0.31-0.2-0.55-0.34-0.74c-0.14-0.18-0.31-0.33-0.51-0.44c-0.2-0.11-0.4-0.19-0.59-0.23c-0.19-0.04-0.4-0.06-0.62-0.06
			h-1.09V22.37z"/>
		<polygon points="45.83,15.31 39.21,15.31 39.21,24.38 41.5,24.38 41.5,22.14 41.5,20.99 43.78,20.99 43.78,19.13 41.5,19.13 
			41.5,18.27 41.5,17.33 45.83,17.33 		"/>
		<g>
			<polygon points="51.54,15.31 51.54,17.3 54.11,17.3 56.17,17.3 57.57,17.3 57.57,15.31 56.17,15.31 			"/>
			<polygon points="51.54,18.91 51.54,20.78 53.83,20.78 54.31,20.78 55.56,20.78 55.56,18.91 54.31,18.91 			"/>
			<polygon points="51.54,22.38 51.54,24.38 54.11,24.38 56.17,24.38 57.57,24.38 57.57,22.38 56.17,22.38 			"/>
		</g>
	</g>
	<g>
		<path d="M86.1,19.45h3.78v4.73h-1.69l-0.05-0.86c-0.59,0.7-1.44,1.06-2.56,1.06c-0.58,0-1.12-0.1-1.62-0.31
			c-0.5-0.2-0.94-0.49-1.3-0.87c-0.37-0.37-0.66-0.85-0.87-1.41c-0.21-0.57-0.31-1.2-0.31-1.88c0-0.91,0.18-1.71,0.53-2.41
			c0.35-0.7,0.86-1.23,1.51-1.62c0.65-0.38,1.4-0.57,2.25-0.57c1.05,0,1.93,0.27,2.64,0.81c0.71,0.54,1.15,1.27,1.31,2.2l-2.21,0
			c-0.11-0.36-0.33-0.63-0.65-0.83c-0.32-0.19-0.67-0.29-1.07-0.29c-0.27,0-0.52,0.05-0.77,0.15c-0.24,0.1-0.47,0.25-0.67,0.46
			c-0.21,0.2-0.37,0.48-0.49,0.83c-0.12,0.35-0.18,0.76-0.18,1.22c0,0.84,0.2,1.49,0.6,1.95c0.4,0.46,0.93,0.7,1.6,0.7
			c0.47,0,0.88-0.12,1.23-0.35c0.35-0.24,0.6-0.58,0.77-1.02l-1.78,0V19.45z"/>
		<path d="M102.14,18.4v5.93H100v-8.67h3.02l1.8,6.16l1.8-6.16h3.03v8.67h-2.14v-5.94l-1.72,5.94h-1.95L102.14,18.4z"/>
		<path d="M98.56,15.65h-2.38l-1.75,3.41l-1.76-3.26c-0.05-0.09-0.08-0.15-0.08-0.15h-2.27c0,0,0.13,0.23,0.23,0.41l2.83,5.03
			l-1.66,3.23h2.38L98.56,15.65z"/>
	</g>
</g>
<g>
	<path d="M12.96,15.46l0-5.79h14.71v2.94h-7.36C16.65,12.61,14.87,13.04,12.96,15.46z"/>
	<path d="M27.67,17.62v-2.94c0,0-6.64,0-7.37,0c-4.21,0-7.34,3.43-7.34,7.31v1.33h2.94v-1.29c0-0.07,0-0.13,0.01-0.2
		c0.1-2.34,2.03-4.21,4.4-4.21H27.67z"/>
	<path d="M20.31,29.99c0,0,0.21,0.01,0.45,0c3.98-0.23,6.91-3.51,6.91-7.33v-2.94h-7.36v2.94h4.4c0,2.43-1.97,4.4-4.41,4.4V29.99z"
		/>
</g>
<g>
	<path d="M39.69,26.8v1.29h-0.14v-1.54h0.16l0.6,1.38l0.6-1.38h0.16v1.54h-0.14V26.8l-0.56,1.29h-0.13L39.69,26.8z"/>
	<path d="M41.91,26.8v1.29h-0.14v-1.54h0.16l0.6,1.38l0.6-1.38h0.16v1.54h-0.14V26.8l-0.56,1.29h-0.13L41.91,26.8z"/>
	<path d="M44.9,27.66h-0.72l-0.16,0.43h-0.15l0.6-1.54h0.14l0.6,1.54h-0.15L44.9,27.66z M44.23,27.53h0.63l-0.31-0.82L44.23,27.53z"
		/>
	<path d="M47.21,26.55h0.14l-0.67,1.54h-0.14L47.21,26.55z"/>
	<path d="M48.82,26.55h0.63c0.15,0,0.27,0.03,0.36,0.1c0.08,0.07,0.12,0.17,0.12,0.29c0,0.17-0.07,0.28-0.21,0.35
		c0.09,0.03,0.15,0.08,0.2,0.14c0.05,0.06,0.07,0.14,0.07,0.24c0,0.13-0.04,0.23-0.13,0.31c-0.09,0.08-0.21,0.11-0.37,0.11h-0.66
		V26.55z M48.96,26.67v0.57h0.48c0.11,0,0.2-0.02,0.26-0.07c0.06-0.05,0.09-0.12,0.09-0.22c0-0.19-0.11-0.28-0.34-0.28H48.96z
		 M48.96,27.36v0.61h0.5c0.26,0,0.39-0.1,0.39-0.3c0-0.1-0.03-0.18-0.1-0.23c-0.07-0.05-0.16-0.08-0.29-0.08H48.96z"/>
	<path d="M50.69,27.96c-0.09-0.1-0.13-0.24-0.13-0.43v-0.05h0.14v0.05c0,0.16,0.03,0.27,0.1,0.35c0.07,0.09,0.17,0.13,0.3,0.13
		s0.23-0.04,0.3-0.13c0.03-0.04,0.06-0.09,0.07-0.14s0.02-0.12,0.02-0.21v-0.97h0.14v0.98c0,0.18-0.04,0.32-0.13,0.42
		c-0.09,0.11-0.23,0.17-0.41,0.17C50.92,28.13,50.78,28.07,50.69,27.96z"/>
	<path d="M52.37,27.96c-0.09-0.1-0.13-0.24-0.13-0.43v-0.05h0.14v0.05c0,0.16,0.03,0.27,0.1,0.35c0.07,0.09,0.17,0.13,0.3,0.13
		s0.23-0.04,0.3-0.13c0.03-0.04,0.06-0.09,0.07-0.14s0.02-0.12,0.02-0.21v-0.97h0.14v0.98c0,0.18-0.04,0.32-0.13,0.42
		c-0.09,0.11-0.23,0.17-0.41,0.17C52.61,28.13,52.47,28.07,52.37,27.96z"/>
	<path d="M55.45,26.55h0.14l-0.67,1.54h-0.14L55.45,26.55z"/>
	<path d="M58.07,27.88c0.1-0.08,0.16-0.2,0.19-0.35h0.14c-0.03,0.18-0.1,0.32-0.23,0.43s-0.27,0.16-0.44,0.16
		c-0.14,0-0.26-0.03-0.36-0.1c-0.11-0.07-0.19-0.16-0.25-0.28c-0.06-0.12-0.09-0.26-0.09-0.42s0.03-0.3,0.09-0.42
		c0.06-0.12,0.14-0.22,0.25-0.28c0.11-0.07,0.23-0.1,0.36-0.1c0.17,0,0.32,0.05,0.44,0.16s0.2,0.25,0.23,0.43h-0.14
		c-0.03-0.15-0.09-0.26-0.19-0.35s-0.21-0.13-0.34-0.13c-0.08,0-0.15,0.02-0.22,0.05s-0.13,0.08-0.18,0.13s-0.09,0.13-0.12,0.22
		c-0.03,0.09-0.04,0.18-0.04,0.29s0.02,0.2,0.04,0.29c0.03,0.09,0.07,0.16,0.12,0.22c0.05,0.06,0.11,0.1,0.18,0.13
		c0.07,0.03,0.14,0.05,0.22,0.05C57.85,28,57.97,27.96,58.07,27.88z"/>
	<path d="M60.06,26.67c0.09,0.08,0.13,0.2,0.13,0.34c0,0.11-0.02,0.2-0.07,0.28c-0.05,0.07-0.12,0.13-0.21,0.16l0.35,0.64h-0.15
		l-0.33-0.61c-0.02,0-0.05,0-0.07,0h-0.51v0.61h-0.14v-1.54h0.65C59.86,26.55,59.98,26.59,60.06,26.67z M59.19,26.68v0.68h0.5
		c0.11,0,0.19-0.03,0.26-0.08c0.06-0.06,0.1-0.14,0.1-0.26c0-0.12-0.03-0.2-0.1-0.26s-0.15-0.08-0.26-0.08H59.19z"/>
	<path d="M61.15,28.02c-0.11-0.07-0.19-0.16-0.25-0.28s-0.09-0.26-0.09-0.42c0-0.16,0.03-0.3,0.09-0.42s0.15-0.22,0.25-0.28
		c0.11-0.07,0.23-0.1,0.37-0.1c0.14,0,0.26,0.03,0.37,0.1c0.11,0.07,0.19,0.16,0.25,0.28s0.09,0.26,0.09,0.42
		c0,0.16-0.03,0.3-0.09,0.42s-0.15,0.22-0.25,0.28c-0.11,0.07-0.23,0.1-0.37,0.1C61.38,28.13,61.26,28.09,61.15,28.02z M61.74,27.96
		c0.07-0.03,0.13-0.08,0.18-0.13c0.05-0.06,0.09-0.13,0.12-0.22s0.05-0.18,0.05-0.29c0-0.1-0.02-0.2-0.05-0.29
		c-0.03-0.09-0.07-0.16-0.12-0.22s-0.11-0.1-0.18-0.13c-0.07-0.03-0.15-0.05-0.22-0.05c-0.08,0-0.15,0.02-0.22,0.05
		c-0.07,0.03-0.13,0.08-0.18,0.13s-0.09,0.13-0.12,0.22c-0.03,0.09-0.05,0.18-0.05,0.29c0,0.1,0.02,0.2,0.05,0.29
		s0.07,0.16,0.12,0.22c0.05,0.06,0.11,0.1,0.18,0.13c0.07,0.03,0.15,0.05,0.22,0.05C61.6,28,61.67,27.99,61.74,27.96z"/>
	<path d="M63.13,28.07c-0.09-0.03-0.16-0.09-0.21-0.16s-0.08-0.15-0.08-0.24H63c0,0.07,0.02,0.13,0.06,0.18
		c0.04,0.05,0.09,0.09,0.15,0.11c0.06,0.02,0.14,0.04,0.22,0.04c0.06,0,0.11-0.01,0.16-0.02s0.1-0.03,0.14-0.06
		c0.04-0.03,0.07-0.06,0.1-0.1c0.02-0.04,0.04-0.09,0.04-0.15c0-0.03,0-0.05-0.01-0.07c0-0.02-0.01-0.04-0.02-0.06
		c-0.01-0.02-0.02-0.03-0.03-0.04s-0.03-0.02-0.05-0.04c-0.02-0.01-0.04-0.02-0.06-0.03s-0.04-0.02-0.08-0.03
		c-0.03-0.01-0.06-0.02-0.09-0.02c-0.02-0.01-0.06-0.01-0.1-0.02c-0.15-0.03-0.25-0.07-0.31-0.09c-0.12-0.06-0.2-0.14-0.22-0.24
		c-0.01-0.03-0.01-0.05-0.01-0.08c0-0.12,0.05-0.23,0.15-0.31c0.1-0.08,0.23-0.12,0.39-0.12c0.16,0,0.3,0.04,0.4,0.12
		c0.11,0.08,0.16,0.19,0.16,0.32h-0.14c0-0.1-0.04-0.17-0.12-0.23s-0.18-0.09-0.3-0.09c-0.12,0-0.21,0.03-0.29,0.08
		c-0.08,0.05-0.12,0.13-0.12,0.23c0,0.02,0,0.04,0.01,0.06s0.01,0.04,0.02,0.05s0.02,0.03,0.04,0.04c0.01,0.01,0.03,0.02,0.05,0.04
		c0.02,0.01,0.04,0.02,0.06,0.03c0.02,0.01,0.05,0.02,0.08,0.03c0.03,0.01,0.07,0.02,0.09,0.03s0.06,0.02,0.11,0.03
		c0.14,0.03,0.24,0.06,0.29,0.09c0.11,0.05,0.18,0.12,0.21,0.21C64,27.59,64,27.63,64,27.68c0,0.13-0.05,0.24-0.15,0.32
		c-0.1,0.08-0.24,0.13-0.41,0.13C63.32,28.13,63.22,28.11,63.13,28.07z"/>
	<path d="M64.89,28.07c-0.09-0.03-0.16-0.09-0.21-0.16s-0.08-0.15-0.08-0.24h0.15c0,0.07,0.02,0.13,0.06,0.18
		c0.04,0.05,0.09,0.09,0.15,0.11C65.03,27.99,65.1,28,65.18,28c0.06,0,0.11-0.01,0.16-0.02s0.1-0.03,0.14-0.06
		c0.04-0.03,0.07-0.06,0.1-0.1c0.02-0.04,0.04-0.09,0.04-0.15c0-0.03,0-0.05-0.01-0.07c0-0.02-0.01-0.04-0.02-0.06
		c-0.01-0.02-0.02-0.03-0.03-0.04s-0.03-0.02-0.05-0.04c-0.02-0.01-0.04-0.02-0.06-0.03s-0.04-0.02-0.08-0.03
		c-0.03-0.01-0.06-0.02-0.09-0.02c-0.02-0.01-0.06-0.01-0.1-0.02c-0.15-0.03-0.25-0.07-0.31-0.09c-0.12-0.06-0.2-0.14-0.22-0.24
		c-0.01-0.03-0.01-0.05-0.01-0.08c0-0.12,0.05-0.23,0.15-0.31c0.1-0.08,0.23-0.12,0.39-0.12c0.16,0,0.3,0.04,0.4,0.12
		c0.11,0.08,0.16,0.19,0.16,0.32h-0.14c0-0.1-0.04-0.17-0.12-0.23s-0.18-0.09-0.3-0.09c-0.12,0-0.21,0.03-0.29,0.08
		c-0.08,0.05-0.12,0.13-0.12,0.23c0,0.02,0,0.04,0.01,0.06s0.01,0.04,0.02,0.05s0.02,0.03,0.04,0.04c0.01,0.01,0.03,0.02,0.05,0.04
		c0.02,0.01,0.04,0.02,0.06,0.03c0.02,0.01,0.05,0.02,0.08,0.03c0.03,0.01,0.07,0.02,0.09,0.03s0.06,0.02,0.11,0.03
		c0.14,0.03,0.24,0.06,0.29,0.09c0.11,0.05,0.18,0.12,0.21,0.21c0.01,0.04,0.02,0.08,0.02,0.12c0,0.13-0.05,0.24-0.15,0.32
		c-0.1,0.08-0.24,0.13-0.41,0.13C65.08,28.13,64.98,28.11,64.89,28.07z"/>
	<path d="M66.41,26.55h1v0.12h-0.86v0.6h0.77v0.12h-0.77v0.7h-0.14V26.55z"/>
	<path d="M68.08,26.55h0.14v1.54h-0.14V26.55z"/>
	<path d="M68.9,26.55h1.22v0.12h-0.54v1.42h-0.14v-1.42H68.9V26.55z"/>
	<path d="M72.21,26.55h0.14l-0.67,1.54h-0.14L72.21,26.55z"/>
	<path d="M74.06,28.07c-0.09-0.03-0.16-0.09-0.21-0.16s-0.08-0.15-0.08-0.24h0.15c0,0.07,0.02,0.13,0.06,0.18
		c0.04,0.05,0.09,0.09,0.15,0.11C74.2,27.99,74.27,28,74.35,28c0.06,0,0.11-0.01,0.16-0.02s0.1-0.03,0.14-0.06
		c0.04-0.03,0.07-0.06,0.1-0.1c0.02-0.04,0.04-0.09,0.04-0.15c0-0.03,0-0.05-0.01-0.07c0-0.02-0.01-0.04-0.02-0.06
		c-0.01-0.02-0.02-0.03-0.03-0.04s-0.03-0.02-0.05-0.04c-0.02-0.01-0.04-0.02-0.06-0.03s-0.04-0.02-0.08-0.03
		c-0.03-0.01-0.06-0.02-0.09-0.02c-0.02-0.01-0.06-0.01-0.1-0.02c-0.15-0.03-0.25-0.07-0.31-0.09c-0.12-0.06-0.2-0.14-0.22-0.24
		c-0.01-0.03-0.01-0.05-0.01-0.08c0-0.12,0.05-0.23,0.15-0.31c0.1-0.08,0.23-0.12,0.39-0.12c0.16,0,0.3,0.04,0.4,0.12
		c0.11,0.08,0.16,0.19,0.16,0.32h-0.14c0-0.1-0.04-0.17-0.12-0.23s-0.18-0.09-0.3-0.09c-0.12,0-0.21,0.03-0.29,0.08
		c-0.08,0.05-0.12,0.13-0.12,0.23c0,0.02,0,0.04,0.01,0.06s0.01,0.04,0.02,0.05s0.02,0.03,0.04,0.04c0.01,0.01,0.03,0.02,0.05,0.04
		c0.02,0.01,0.04,0.02,0.06,0.03c0.02,0.01,0.05,0.02,0.08,0.03c0.03,0.01,0.07,0.02,0.09,0.03s0.06,0.02,0.11,0.03
		c0.14,0.03,0.24,0.06,0.29,0.09c0.11,0.05,0.18,0.12,0.21,0.21c0.01,0.04,0.02,0.08,0.02,0.12c0,0.13-0.05,0.24-0.15,0.32
		c-0.1,0.08-0.24,0.13-0.41,0.13C74.24,28.13,74.14,28.11,74.06,28.07z"/>
	<path d="M76.46,27.66h-0.72l-0.16,0.43h-0.15l0.6-1.54h0.14l0.6,1.54h-0.15L76.46,27.66z M75.79,27.53h0.63l-0.31-0.82L75.79,27.53
		z M76.09,26.42h-0.11l0.27-0.28h0.16L76.09,26.42z"/>
	<path d="M77.34,26.55h0.14v1.42h0.84v0.12h-0.98V26.55z"/>
	<path d="M79.15,28.02c-0.11-0.07-0.19-0.16-0.25-0.28c-0.06-0.12-0.09-0.26-0.09-0.42c0-0.16,0.03-0.3,0.09-0.42
		c0.06-0.12,0.15-0.22,0.25-0.28c0.11-0.07,0.23-0.1,0.37-0.1c0.14,0,0.26,0.03,0.37,0.1c0.11,0.07,0.19,0.16,0.26,0.28
		c0.06,0.12,0.09,0.26,0.09,0.42c0,0.16-0.03,0.3-0.09,0.42c-0.06,0.12-0.15,0.22-0.26,0.28c-0.11,0.07-0.23,0.1-0.37,0.1
		C79.38,28.13,79.25,28.09,79.15,28.02z M79.74,27.96c0.07-0.03,0.13-0.08,0.18-0.13c0.05-0.06,0.09-0.13,0.12-0.22
		s0.05-0.18,0.05-0.29c0-0.1-0.02-0.2-0.05-0.29c-0.03-0.09-0.07-0.16-0.12-0.22s-0.11-0.1-0.18-0.13
		c-0.07-0.03-0.14-0.05-0.22-0.05c-0.08,0-0.15,0.02-0.22,0.05c-0.07,0.03-0.13,0.08-0.18,0.13s-0.09,0.13-0.12,0.22
		c-0.03,0.09-0.05,0.18-0.05,0.29c0,0.1,0.02,0.2,0.05,0.29c0.03,0.09,0.07,0.16,0.12,0.22c0.05,0.06,0.11,0.1,0.18,0.13
		c0.07,0.03,0.14,0.05,0.22,0.05C79.6,28,79.67,27.99,79.74,27.96z"/>
	<path d="M81.39,28.09h-0.15l-0.55-1.54h0.15l0.48,1.37l0.48-1.37h0.14L81.39,28.09z"/>
	<path d="M82.52,26.55h1.04v0.12h-0.9v0.58h0.8v0.12h-0.8v0.58h0.91v0.12h-1.05V26.55z M83.03,26.42h-0.11l0.27-0.28h0.16
		L83.03,26.42z"/>
	<path d="M85.07,26.55h0.14v1.42h0.83v0.12h-0.97V26.55z"/>
	<path d="M86.69,26.55h1.04v0.12h-0.9v0.58h0.8v0.12h-0.8v0.58h0.91v0.12h-1.05V26.55z"/>
	<path d="M88.97,27.25l-0.42,0.49v0.35h-0.14v-1.54h0.14v1l0.85-1h0.18l-0.52,0.59l0.56,0.95h-0.16L88.97,27.25z"/>
	<path d="M91.1,27.88c0.1-0.08,0.16-0.2,0.19-0.35h0.14c-0.03,0.18-0.1,0.32-0.23,0.43c-0.12,0.11-0.27,0.16-0.44,0.16
		c-0.13,0-0.26-0.03-0.36-0.1c-0.11-0.07-0.19-0.16-0.25-0.28c-0.06-0.12-0.09-0.26-0.09-0.42s0.03-0.3,0.09-0.42
		s0.14-0.22,0.25-0.28c0.11-0.07,0.23-0.1,0.36-0.1c0.17,0,0.32,0.05,0.44,0.16c0.12,0.11,0.2,0.25,0.23,0.43h-0.14
		c-0.03-0.15-0.09-0.26-0.19-0.35s-0.21-0.13-0.34-0.13c-0.08,0-0.15,0.02-0.22,0.05s-0.13,0.08-0.18,0.13
		c-0.05,0.06-0.09,0.13-0.12,0.22c-0.03,0.09-0.04,0.18-0.04,0.29s0.02,0.2,0.04,0.29c0.03,0.09,0.07,0.16,0.12,0.22
		c0.05,0.06,0.11,0.1,0.18,0.13c0.07,0.03,0.14,0.05,0.22,0.05C90.88,28,91,27.96,91.1,27.88z"/>
	<path d="M92.08,26.55h1.04v0.12h-0.9v0.58h0.8v0.12h-0.8v0.58h0.91v0.12h-1.05V26.55z"/>
	<path d="M95.23,26.55h0.14l-0.67,1.54h-0.14L95.23,26.55z"/>
	<path d="M97.15,28.02c-0.11-0.07-0.19-0.16-0.25-0.28c-0.06-0.12-0.09-0.26-0.09-0.42c0-0.16,0.03-0.3,0.09-0.42
		c0.06-0.12,0.15-0.22,0.25-0.28c0.11-0.07,0.23-0.1,0.37-0.1c0.14,0,0.26,0.03,0.37,0.1c0.11,0.07,0.19,0.16,0.26,0.28
		c0.06,0.12,0.09,0.26,0.09,0.42c0,0.16-0.03,0.3-0.09,0.42c-0.06,0.12-0.15,0.22-0.26,0.28c-0.11,0.07-0.23,0.1-0.37,0.1
		C97.38,28.13,97.26,28.09,97.15,28.02z M97.75,27.96c0.07-0.03,0.13-0.08,0.18-0.13c0.05-0.06,0.09-0.13,0.12-0.22
		s0.05-0.18,0.05-0.29c0-0.1-0.02-0.2-0.05-0.29c-0.03-0.09-0.07-0.16-0.12-0.22s-0.11-0.1-0.18-0.13
		c-0.07-0.03-0.14-0.05-0.22-0.05c-0.08,0-0.15,0.02-0.22,0.05c-0.07,0.03-0.13,0.08-0.18,0.13s-0.09,0.13-0.12,0.22
		c-0.03,0.09-0.05,0.18-0.05,0.29c0,0.1,0.02,0.2,0.05,0.29c0.03,0.09,0.07,0.16,0.12,0.22c0.05,0.06,0.11,0.1,0.18,0.13
		c0.07,0.03,0.14,0.05,0.22,0.05C97.6,28,97.68,27.99,97.75,27.96z"/>
	<path d="M98.89,26.55h0.64c0.15,0,0.27,0.04,0.36,0.12c0.09,0.08,0.13,0.19,0.13,0.34c0,0.15-0.04,0.26-0.13,0.34
		s-0.21,0.12-0.36,0.12h-0.5v0.62h-0.14V26.55z M99.03,26.68v0.67h0.48c0.05,0,0.1-0.01,0.14-0.02c0.04-0.01,0.08-0.03,0.11-0.05
		c0.04-0.02,0.06-0.06,0.08-0.1c0.02-0.04,0.03-0.1,0.03-0.16c0-0.06-0.01-0.11-0.03-0.16s-0.05-0.08-0.08-0.1
		c-0.03-0.02-0.07-0.04-0.11-0.05c-0.04-0.01-0.09-0.02-0.14-0.02H99.03z"/>
	<path d="M100.63,26.55h1.04v0.12h-0.9v0.58h0.8v0.12h-0.8v0.58h0.91v0.12h-1.05V26.55z"/>
	<path d="M102.48,26.79v1.3h-0.14v-1.54h0.13l0.9,1.3v-1.3h0.14v1.54h-0.13L102.48,26.79z"/>
	<path d="M104.93,27.33h0.63v0.76h-0.12V27.8c-0.05,0.1-0.12,0.18-0.22,0.23c-0.1,0.06-0.21,0.09-0.34,0.09
		c-0.1,0-0.2-0.02-0.29-0.06c-0.09-0.04-0.16-0.09-0.23-0.16c-0.06-0.07-0.11-0.15-0.15-0.25c-0.04-0.1-0.05-0.21-0.05-0.33
		c0-0.16,0.03-0.3,0.09-0.42s0.14-0.22,0.25-0.28c0.11-0.07,0.23-0.1,0.37-0.1c0.16,0,0.3,0.04,0.42,0.13
		c0.12,0.09,0.2,0.2,0.24,0.35h-0.14c-0.04-0.11-0.1-0.2-0.2-0.26c-0.1-0.06-0.21-0.09-0.33-0.09c-0.08,0-0.15,0.02-0.22,0.05
		s-0.13,0.08-0.18,0.13c-0.05,0.06-0.09,0.13-0.12,0.22c-0.03,0.09-0.04,0.18-0.04,0.29c0,0.21,0.05,0.37,0.16,0.5
		s0.25,0.19,0.42,0.19c0.15,0,0.28-0.05,0.38-0.15c0.1-0.1,0.16-0.24,0.17-0.41h-0.51V27.33z"/>
	<path d="M106.72,27.58v0.51h-0.14v-0.51l-0.59-1.03h0.16l0.5,0.89l0.51-0.89h0.16L106.72,27.58z"/>
	<path d="M108.02,26.8v1.29h-0.14v-1.54h0.16l0.6,1.38l0.6-1.38h0.16v1.54h-0.14V26.8l-0.56,1.29h-0.13L108.02,26.8z"/>
</g>
</svg>
